<?xml version="1.0" standalone="no"?>
<!DOCTYPE svg PUBLIC "-//W3C//DTD SVG 20010904//EN"
 "http://www.w3.org/TR/2001/REC-SVG-20010904/DTD/svg10.dtd">
<svg version="1.0" xmlns="http://www.w3.org/2000/svg"
 width="512.000000pt" height="512.000000pt" viewBox="0 0 512.000000 512.000000"
 preserveAspectRatio="xMidYMid meet">

<g transform="translate(0.000000,512.000000) scale(0.100000,-0.100000)"
fill="currentColor" stroke="none">
<path d="M1605 4469 c-240 -35 -463 -147 -635 -319 -175 -176 -284 -395 -320
-645 -13 -94 -13 -1796 0 -1890 43 -298 192 -558 424 -737 106 -82 276 -168
389 -197 156 -40 208 -42 1152 -38 801 3 918 5 976 20 401 99 701 366 828 736
56 165 54 123 58 1106 3 613 0 937 -7 992 -30 229 -122 433 -277 610 -163 187
-425 325 -688 363 -87 12 -1815 11 -1900 -1z m1945 -331 c162 -49 272 -111
374 -214 71 -71 147 -184 176 -262 58 -153 55 -98 55 -1102 0 -1004 3 -949
-55 -1102 -66 -177 -261 -372 -438 -438 -153 -58 -93 -54 -1057 -58 -955 -4
-975 -3 -1116 47 -202 72 -398 259 -469 449 -58 153 -55 98 -55 1102 0 1004
-3 949 55 1102 70 187 262 374 458 445 141 52 132 52 1107 50 815 -2 916 -4
965 -19z"/>
<path d="M2495 3426 c-37 -17 -70 -52 -84 -89 -7 -18 -11 -138 -11 -322 l0
-294 -309 -3 c-295 -3 -311 -4 -337 -24 -53 -39 -69 -71 -69 -134 0 -63 16
-95 69 -134 26 -20 42 -21 336 -24 l309 -3 3 -309 c3 -294 4 -310 24 -336 39
-53 71 -69 134 -69 63 0 95 16 134 69 20 26 21 42 24 336 l3 309 309 3 c294 3
310 4 336 24 53 39 69 71 69 134 0 63 -16 95 -69 134 -26 20 -42 21 -336 24
l-309 3 -3 309 c-3 294 -4 310 -24 336 -11 15 -32 37 -46 47 -34 25 -113 32
-153 13z"/>
</g>
</svg>
