<svg width="22" height="24" viewBox="0 0 22 24" fill="none" xmlns="http://www.w3.org/2000/svg">
<path d="M8.91943 0.0510674C8.53114 0.14501 7.96123 0.476936 7.68566 0.777552C7.54788 0.927858 7.34121 1.241 7.23474 1.47272C7.05312 1.86101 7.03434 1.95495 7.01555 2.6877L6.9905 3.48307L3.809 3.50186C0.702663 3.52065 0.621247 3.52691 0.452151 3.65217C0.120224 3.89642 0.0200195 4.09682 0.0200195 4.49138C0.0200195 4.88593 0.120224 5.08635 0.452151 5.33059C0.602458 5.44959 0.727714 5.46211 1.5544 5.4809L2.49382 5.49969L2.50634 12.6831C2.5314 20.4928 2.50634 19.9417 2.86959 20.9124C3.28293 22.0209 4.50417 23.2421 5.61268 23.6555C6.55836 24.0125 6.37048 23.9999 11.0112 23.9999C15.6519 23.9999 15.464 24.0125 16.4097 23.6555C16.9045 23.4739 17.631 22.9854 18.0568 22.547C18.5015 22.1086 18.9712 21.3946 19.1528 20.9124C19.5161 19.9417 19.491 20.4928 19.5161 12.6831L19.5286 5.49969L20.468 5.4809C21.2947 5.46211 21.4199 5.44959 21.5703 5.33059C21.9022 5.08635 22.0024 4.88593 22.0024 4.49138C22.0024 4.09682 21.9022 3.89642 21.5703 3.65217C21.4012 3.52691 21.3197 3.52065 18.2134 3.50186L15.0319 3.48307L15.0069 2.6877C14.9881 1.95495 14.9693 1.86101 14.7877 1.47272C14.5184 0.896544 14.1614 0.527039 13.5915 0.245214L13.1155 0.0134907L11.1427 0.000965118C10.053 -0.00529671 9.05721 0.0197544 8.91943 0.0510674ZM12.8587 2.14284C13.0028 2.28062 13.0153 2.34325 13.0153 2.89437V3.48934H11.0112H9.00711V2.89437C9.00711 2.34325 9.01964 2.28062 9.16368 2.14284L9.31399 1.98627H11.0112H12.7084L12.8587 2.14284ZM17.5245 12.3762C17.5245 16.6913 17.4994 19.378 17.4619 19.5909C17.2489 20.737 16.2406 21.7453 15.0883 21.9645C14.6374 22.0522 7.38505 22.0522 6.93413 21.9645C6.11371 21.808 5.26823 21.188 4.87994 20.4677C4.47912 19.7162 4.49791 20.0607 4.49791 12.4326V5.49343H11.0112H17.5245V12.3762Z" fill="currentColor"/>
<path d="M8.08652 9.62688C7.79843 9.75214 7.59176 10.0277 7.52913 10.3596C7.45397 10.7667 7.59176 10.9859 8.61885 12.0255L9.59585 13.0088L8.58754 14.0296C7.50408 15.1193 7.43519 15.2258 7.53539 15.7456C7.59176 16.0525 7.96752 16.4283 8.2744 16.4846C8.79421 16.5848 8.90068 16.5159 9.9904 15.4325L11.0112 14.4242L11.9945 15.4012C12.7899 16.1903 13.0341 16.3907 13.2533 16.4596C13.9798 16.6725 14.675 15.9773 14.462 15.2446C14.3931 15.0317 14.1927 14.7874 13.4036 13.992L12.4266 13.0088L13.4036 12.0193C14.1113 11.3053 14.3994 10.9734 14.4558 10.798C14.675 10.1029 14.0737 9.42021 13.341 9.53294C13.0717 9.57052 12.984 9.63941 12.0321 10.5851L11.005 11.5934L10.053 10.6415C8.88189 9.47031 8.66269 9.36385 8.08652 9.62688Z" fill="currentColor"/>
</svg>
