<?xml version="1.0" standalone="no"?>
<!DOCTYPE svg PUBLIC "-//W3C//DTD SVG 20010904//EN"
 "http://www.w3.org/TR/2001/REC-SVG-20010904/DTD/svg10.dtd">
<svg version="1.0" xmlns="http://www.w3.org/2000/svg"
 width="512.000000pt" height="512.000000pt" viewBox="0 0 512.000000 512.000000"
 preserveAspectRatio="xMidYMid meet">

<g transform="translate(0.000000,512.000000) scale(0.100000,-0.100000)"
fill="currentColor" stroke="none">
<path d="M2380 4461 c-187 -40 -350 -131 -482 -269 -164 -172 -248 -384 -248
-627 0 -244 84 -452 255 -634 37 -39 66 -72 64 -74 -2 -1 -56 -28 -120 -60
-158 -78 -273 -161 -404 -292 -135 -135 -218 -250 -301 -420 -104 -214 -150
-388 -161 -610 -7 -150 4 -215 47 -303 79 -158 282 -304 535 -386 326 -106
684 -154 1080 -143 856 24 1406 262 1486 645 16 77 5 290 -21 414 -43 205
-142 433 -263 605 -80 113 -257 291 -371 370 -48 35 -141 89 -205 120 -64 32
-118 59 -120 60 -2 2 27 35 64 74 171 182 255 390 255 634 0 243 -84 455 -248
627 -220 230 -540 332 -842 269z m324 -321 c109 -28 190 -74 272 -155 117
-117 174 -253 174 -420 0 -105 -20 -187 -66 -275 -114 -218 -365 -348 -600
-312 -201 32 -364 146 -450 317 -47 96 -64 164 -64 269 0 168 56 303 175 422
149 149 357 206 559 154z m56 -1505 c462 -75 846 -401 994 -846 41 -121 66
-262 66 -370 0 -70 -3 -81 -32 -125 -200 -297 -1226 -430 -1958 -253 -266 65
-443 157 -506 266 -26 44 -27 48 -21 161 31 576 475 1070 1048 1166 114 19
294 19 409 1z"/>
</g>
</svg>
