<?xml version="1.0" standalone="no"?>
<!DOCTYPE svg PUBLIC "-//W3C//DTD SVG 20010904//EN"
 "http://www.w3.org/TR/2001/REC-SVG-20010904/DTD/svg10.dtd">
<svg version="1.0" xmlns="http://www.w3.org/2000/svg"
 width="512.000000pt" height="512.000000pt" viewBox="0 0 512.000000 512.000000"
 preserveAspectRatio="xMidYMid meet">

<g transform="translate(0.000000,512.000000) scale(0.100000,-0.100000)"
fill="currentColor" stroke="none">
<path d="M1605 4469 c-240 -35 -463 -147 -635 -319 -175 -176 -284 -395 -320
-645 -13 -94 -13 -1796 0 -1890 43 -298 192 -558 424 -737 106 -82 276 -168
389 -197 156 -40 208 -42 1152 -38 801 3 918 5 976 20 401 99 701 366 828 736
56 165 54 123 58 1106 3 613 0 937 -7 992 -30 229 -122 433 -277 610 -163 187
-425 325 -688 363 -87 12 -1815 11 -1900 -1z m1945 -331 c162 -49 272 -111
374 -214 71 -71 147 -184 176 -262 58 -153 55 -98 55 -1102 0 -1004 3 -949
-55 -1102 -66 -177 -261 -372 -438 -438 -153 -58 -93 -54 -1057 -58 -955 -4
-975 -3 -1116 47 -202 72 -398 259 -469 449 -58 153 -55 98 -55 1102 0 1004
-3 949 55 1102 70 187 262 374 458 445 141 52 132 52 1107 50 815 -2 916 -4
965 -19z"/>
<path d="M3225 3579 c-19 -5 -172 -152 -450 -429 -387 -387 -423 -420 -454
-420 -30 0 -53 19 -220 184 -176 173 -190 185 -233 191 -88 13 -167 -44 -184
-133 -13 -67 14 -106 214 -304 162 -162 196 -191 257 -220 64 -30 78 -33 165
-33 83 0 103 4 160 29 60 27 100 64 498 460 458 457 472 473 458 548 -10 54
-43 98 -89 118 -45 21 -75 23 -122 9z"/>
<path d="M3215 2698 c-11 -6 -209 -199 -440 -429 -389 -388 -423 -419 -455
-419 -30 0 -51 17 -214 179 -100 98 -191 184 -203 190 -35 18 -102 13 -143
-10 -69 -39 -98 -128 -66 -202 8 -18 99 -116 202 -219 164 -162 198 -191 259
-220 64 -30 78 -33 165 -33 83 0 103 4 160 29 60 27 100 65 499 460 247 246
439 445 447 463 46 106 -32 224 -147 223 -24 0 -53 -6 -64 -12z"/>
</g>
</svg>
