<?xml version="1.0" standalone="no"?>
<!DOCTYPE svg PUBLIC "-//W3C//DTD SVG 20010904//EN"
 "http://www.w3.org/TR/2001/REC-SVG-20010904/DTD/svg10.dtd">
<svg version="1.0" xmlns="http://www.w3.org/2000/svg"
 width="512.000000pt" height="512.000000pt" viewBox="0 0 512.000000 512.000000"
 preserveAspectRatio="xMidYMid meet">

<g transform="translate(0.000000,512.000000) scale(0.100000,-0.100000)"
fill="currentColor" stroke="none">
<path d="M1467 4359 c-76 -18 -152 -62 -218 -128 -64 -64 -72 -78 -291 -516
-124 -247 -230 -466 -237 -486 -36 -112 -32 -241 11 -342 14 -32 313 -439 754
-1028 792 -1056 767 -1027 903 -1081 81 -33 261 -33 342 0 136 54 111 25 903
1081 514 686 739 993 754 1032 44 109 47 235 8 346 -7 21 -114 239 -236 483
-217 432 -225 447 -289 511 -68 67 -141 110 -222 128 -56 13 -2128 13 -2182 0z
m477 -331 c-17 -54 -194 -711 -200 -743 l-6 -35 -324 0 c-178 0 -324 2 -324 5
0 16 371 743 387 757 35 32 69 37 271 37 l203 1 -7 -22z m907 -20 c6 -24 53
-198 105 -388 52 -190 94 -351 94 -357 0 -10 -104 -13 -490 -13 -386 0 -490 3
-490 13 0 6 42 167 94 357 52 190 99 364 105 388 l12 42 279 0 279 0 12 -42z
m776 17 c20 -15 80 -123 215 -390 103 -204 187 -373 187 -377 1 -5 -145 -8
-323 -8 l-323 0 -7 33 c-7 35 -194 731 -203 754 -5 12 26 14 210 11 198 -3
218 -5 244 -23z m-1885 -1183 c10 -48 101 -359 203 -691 102 -332 184 -605
182 -607 -3 -3 -1029 1362 -1035 1377 -2 5 140 9 315 9 l318 0 17 -88z m1323
56 c-18 -83 -497 -1638 -505 -1638 -8 0 -487 1555 -505 1638 l-7 32 512 0 512
0 -7 -32z m963 23 c-6 -15 -1032 -1380 -1035 -1377 -2 2 80 275 182 607 102
332 193 643 203 691 l17 88 318 0 c175 0 317 -4 315 -9z"/>
</g>
</svg>
