<svg width="24" height="24" viewBox="0 0 24 24" fill="none" xmlns="http://www.w3.org/2000/svg">
<path d="M9.95154 3.07029C9.34686 3.23435 8.79842 3.67029 8.52186 4.19997L8.36717 4.49998H7.80467C7.18123 4.49998 6.84842 4.5656 6.45936 4.76247C6.12654 4.93122 5.71404 5.33904 5.53592 5.66716C5.23592 6.23435 5.24998 5.85935 5.24998 12.75C5.24998 19.6406 5.23592 19.2656 5.53592 19.8328C5.82654 20.3719 6.45936 20.8359 7.07342 20.9531C7.41561 21.0187 16.5844 21.0187 16.9265 20.9531C17.789 20.789 18.5437 20.0344 18.7031 19.1765C18.7687 18.8297 18.7687 6.6656 18.7031 6.32341C18.5859 5.70935 18.1219 5.07654 17.5828 4.78591C17.175 4.57029 16.8375 4.49998 16.1953 4.49998H15.6328L15.4781 4.19997C15.1969 3.66091 14.6484 3.22966 14.0297 3.07029C13.65 2.97185 10.3172 2.97185 9.95154 3.07029ZM13.9031 4.62185C14.1515 4.80466 14.2265 4.95466 14.2265 5.24998C14.2265 5.54529 14.1515 5.69529 13.9031 5.8781C13.7812 5.97185 13.7062 5.97654 12.1031 5.9906C11.0062 5.99998 10.3687 5.98591 10.2562 5.9531C9.78279 5.81716 9.59998 5.1656 9.92342 4.77654C10.1578 4.50466 10.1719 4.49998 12.0562 4.51404C13.7109 4.52341 13.7812 4.5281 13.9031 4.62185ZM8.52186 6.29998C8.80311 6.83904 9.35154 7.27029 9.97029 7.42966C10.364 7.53279 13.6359 7.53279 14.0297 7.42966C14.6531 7.27029 15.2015 6.83904 15.4781 6.29529L15.6328 5.99529L16.2047 6.00935C16.8234 6.02341 16.9172 6.05622 17.1281 6.34685C17.2265 6.47341 17.2265 6.48748 17.2265 12.75C17.2265 19.0125 17.2265 19.0265 17.1281 19.1531C17.0765 19.2234 16.9734 19.3265 16.9031 19.3781C16.7765 19.4765 16.7484 19.4765 12 19.4765C7.25154 19.4765 7.22342 19.4765 7.09686 19.3781C7.02654 19.3265 6.92342 19.2234 6.87186 19.1531C6.77342 19.0265 6.77342 19.0031 6.75936 12.8765C6.75467 9.49216 6.75936 6.66091 6.77342 6.57654C6.80623 6.38904 7.00311 6.14997 7.19529 6.0656C7.28436 6.0281 7.52811 6.00466 7.85154 5.99998H8.36717L8.52186 6.29998Z" fill="currentColor"/>
<path d="M8.69534 9.44058C8.38128 9.57651 8.20315 9.93745 8.26878 10.289C8.31096 10.5093 8.54534 10.7671 8.75628 10.8281C8.87346 10.8656 9.96096 10.875 12.1032 10.8656C15.2203 10.8515 15.2766 10.8515 15.4032 10.7531C15.6516 10.5703 15.7266 10.4203 15.7266 10.125C15.7266 9.82964 15.6516 9.67964 15.4032 9.49683C15.2766 9.39839 15.225 9.39839 12.0563 9.38901C9.45003 9.37964 8.80784 9.38901 8.69534 9.44058Z" fill="currentColor"/>
<path d="M8.69534 12.8156C8.38128 12.9515 8.20315 13.3125 8.26878 13.664C8.31096 13.8843 8.54534 14.1421 8.75628 14.2031C8.87346 14.2406 9.96096 14.25 12.1032 14.2406C15.2203 14.2265 15.2766 14.2265 15.4032 14.1281C15.6516 13.9453 15.7266 13.7953 15.7266 13.5C15.7266 13.2046 15.6516 13.0546 15.4032 12.8718C15.2766 12.7734 15.225 12.7734 12.0563 12.764C9.45003 12.7546 8.80784 12.764 8.69534 12.8156Z" fill="currentColor"/>
<path d="M8.69534 16.1906C8.38128 16.3265 8.20315 16.6875 8.26878 17.039C8.31096 17.2593 8.54534 17.5171 8.75628 17.5781C8.87346 17.6156 9.96096 17.625 12.1032 17.6156C15.2203 17.6015 15.2766 17.6015 15.4032 17.5031C15.6516 17.3203 15.7266 17.1703 15.7266 16.875C15.7266 16.5796 15.6516 16.4296 15.4032 16.2468C15.2766 16.1484 15.225 16.1484 12.0563 16.139C9.45003 16.1296 8.80784 16.139 8.69534 16.1906Z" fill="currentColor"/>
</svg>
