<svg width="16" height="11" viewBox="0 0 16 11" fill="none" xmlns="http://www.w3.org/2000/svg">
<path d="M13.8209 0.193443C13.6479 0.30556 11.817 2.10877 9.76752 4.21096C6.962 7.06993 5.96913 8.03226 5.81428 8.03226C5.65943 8.03226 5.14934 7.5838 3.99251 6.40657C3.10896 5.51898 2.26184 4.72482 2.09788 4.63139C0.995707 4.05212 -0.288639 5.1546 0.057497 6.3692C0.157694 6.69621 0.467395 7.06993 1.73352 8.3873C3.57351 10.2933 4.07449 10.667 5.04914 10.8912C5.64121 11.022 5.84161 11.0314 6.34259 10.938C7.5814 10.7137 7.60872 10.6857 11.8352 6.35986C15.9889 2.12746 16.0982 1.98731 15.9706 1.27724C15.7793 0.240159 14.659 -0.320424 13.8209 0.193443Z" fill="currentColor"/>
</svg>
